<svg width="66" height="67" viewBox="0 0 66 67" fill="none" xmlns="http://www.w3.org/2000/svg">
<ellipse cx="33" cy="33.5" rx="33" ry="33.5" fill="#BF83FF"/>
<mask id="mask0_65_5236" style="mask-type:alpha" maskUnits="userSpaceOnUse" x="0" y="0" width="66" height="67">
<ellipse cx="33" cy="33.5" rx="33" ry="33.5" fill="#C4C4C4"/>
</mask>
<g mask="url(#mask0_65_5236)">
<path fill-rule="evenodd" clip-rule="evenodd" d="M32.9999 17.3437C26.3724 17.3437 20.9999 22.7163 20.9999 29.3437V30.7649C19.7837 30.9689 18.857 32.0266 18.857 33.3007V36.362C18.857 37.656 19.8128 38.7267 21.057 38.9068C21.4742 43.1865 24.1396 46.8075 27.857 48.5734V52.5755C18.7595 53.1931 11.5713 60.7684 11.5713 70.0225H54.4284C54.4284 60.7684 47.2402 53.1931 38.1427 52.5755V48.5734C41.8601 46.8075 44.5255 43.1865 44.9427 38.9068C46.1869 38.7268 47.1427 37.656 47.1427 36.362V33.3007C47.1427 32.0266 46.216 30.9689 44.9999 30.7649V29.3437C44.9999 22.7163 39.6273 17.3437 32.9999 17.3437Z" fill="#D0C6AC"/>
<mask id="mask1_65_5236" style="mask-type:luminance" maskUnits="userSpaceOnUse" x="11" y="17" width="44" height="54">
<path fill-rule="evenodd" clip-rule="evenodd" d="M32.9999 17.3437C26.3724 17.3437 20.9999 22.7163 20.9999 29.3437V30.7649C19.7837 30.9689 18.857 32.0266 18.857 33.3007V36.362C18.857 37.656 19.8128 38.7267 21.057 38.9068C21.4742 43.1865 24.1396 46.8075 27.857 48.5734V52.5755C18.7595 53.1931 11.5713 60.7684 11.5713 70.0225H54.4284C54.4284 60.7684 47.2402 53.1931 38.1427 52.5755V48.5734C41.8601 46.8075 44.5255 43.1865 44.9427 38.9068C46.1869 38.7268 47.1427 37.656 47.1427 36.362V33.3007C47.1427 32.0266 46.216 30.9689 44.9999 30.7649V29.3437C44.9999 22.7163 39.6273 17.3437 32.9999 17.3437Z" fill="white"/>
</mask>
<g mask="url(#mask1_65_5236)">
<rect width="56.5714" height="52.6788" transform="translate(4.71436 17.3437)" fill="#FFCCD7"/>
<rect x="4.71436" y="17.3437" width="56.5714" height="52.6788" fill="#FFCCD7"/>
<path fill-rule="evenodd" clip-rule="evenodd" d="M21 37.7282V39.4554C21 46.0828 26.3726 51.4554 33 51.4554C39.6274 51.4554 45 46.0828 45 39.4554V37.7282C45 44.3556 39.6274 49.7282 33 49.7282C26.3726 49.7282 21 44.3556 21 37.7282Z" fill="black" fill-opacity="0.1"/>
</g>
<path fill-rule="evenodd" clip-rule="evenodd" d="M33.107 60.4858C38.9652 60.4858 43.7141 57.6362 43.7141 54.1211C43.7141 54.047 43.712 53.9732 43.7078 53.8997C50.0053 56.5416 54.4284 62.7655 54.4284 70.0225H11.5713C11.5713 62.6811 16.0979 56.397 22.5124 53.809C22.5041 53.9124 22.4999 54.0165 22.4999 54.1211C22.4999 57.6362 27.2488 60.4858 33.107 60.4858Z" fill="#6223A9"/>
<mask id="mask2_65_5236" style="mask-type:luminance" maskUnits="userSpaceOnUse" x="11" y="53" width="44" height="18">
<path fill-rule="evenodd" clip-rule="evenodd" d="M33.107 60.4858C38.9652 60.4858 43.7141 57.6362 43.7141 54.1211C43.7141 54.047 43.712 53.9732 43.7078 53.8997C50.0053 56.5416 54.4284 62.7655 54.4284 70.0225H11.5713C11.5713 62.6811 16.0979 56.397 22.5124 53.809C22.5041 53.9124 22.4999 54.0165 22.4999 54.1211C22.4999 57.6362 27.2488 60.4858 33.107 60.4858Z" fill="white"/>
</mask>
<g mask="url(#mask2_65_5236)">
<rect x="4.71436" y="46.2739" width="56.5714" height="23.7487" fill="#6223A9"/>
</g>
<path fill-rule="evenodd" clip-rule="evenodd" d="M30 41.7401C30 43.4094 31.3431 44.7626 33 44.7626V44.7626C34.6569 44.7626 36 43.4094 36 41.7401" fill="#0C092A"/>
<g opacity="0.3">
<path fill-rule="evenodd" clip-rule="evenodd" d="M30.4292 37.638C30.4292 38.5919 31.5805 39.3652 33.0006 39.3652V39.3652C34.4208 39.3652 35.5721 38.5919 35.5721 37.638" fill="#0C092A"/>
</g>
<ellipse cx="27.4293" cy="33.7519" rx="1.28571" ry="1.29538" fill="#0C092A"/>
<ellipse cx="38.5718" cy="33.7519" rx="1.28571" ry="1.29538" fill="#0C092A"/>
<path d="M24.3497 30.9794C25.1886 29.7901 27.4885 29.1232 29.4696 29.6134C29.6995 29.6702 29.9316 29.5286 29.988 29.297C30.0445 29.0654 29.9039 28.8316 29.674 28.7747C27.3733 28.2055 24.7101 28.9777 23.651 30.4792C23.5139 30.6735 23.5592 30.9431 23.7521 31.0813C23.9451 31.2194 24.2126 31.1738 24.3497 30.9794Z" fill="#0C092A"/>
<path d="M41.6513 30.9794C40.8123 29.7901 38.5125 29.1232 36.5314 29.6134C36.3015 29.6702 36.0694 29.5286 36.013 29.297C35.9565 29.0654 36.0971 28.8316 36.327 28.7747C38.6277 28.2055 41.2909 28.9777 42.3499 30.4792C42.487 30.6735 42.4418 30.9431 42.2489 31.0813C42.0559 31.2194 41.7884 31.1738 41.6513 30.9794Z" fill="#0C092A"/>
<mask id="mask3_65_5236" style="mask-type:luminance" maskUnits="userSpaceOnUse" x="4" y="9" width="58" height="62">
<rect x="4.71436" y="9.57141" width="56.5714" height="60.4511" fill="white"/>
</mask>
<g mask="url(#mask3_65_5236)">
<path fill-rule="evenodd" clip-rule="evenodd" d="M13.0714 40.8765C12.9392 34.2191 19.1398 20.322 21.4286 17.5596C23.1264 15.5105 27.7918 13.7923 33 13.8894C38.2082 13.9864 43.0418 15.1442 44.7857 17.3437C47.4266 20.6745 52.9004 33.3371 52.9286 40.8765C52.9486 46.2307 50.8848 51.5979 48 51.8872C46.3713 52.0505 44.3025 51.8385 41.8166 51.5838L41.8165 51.5838L41.8162 51.5837L41.8161 51.5837H41.8161H41.816C40.6782 51.4671 39.4531 51.3416 38.1428 51.2389V48.5734C42.197 46.6475 44.9999 42.5152 44.9999 37.7282V31.4987C42.7482 30.2488 40.8312 28.7398 39.2341 27.2066C39.9531 28.5539 40.7756 29.7772 41.7029 30.7019C35.1494 28.8493 30.6191 25.0556 27.9042 22.0812C26.6561 24.4731 24.4206 27.9713 20.9999 30.636V37.7282C20.9999 42.5152 23.8029 46.6475 27.8571 48.5734V51.4005C26.3673 51.606 24.9826 51.8668 23.7084 52.1067L23.7082 52.1067L23.7081 52.1067L23.7081 52.1068L23.708 52.1068C21.3833 52.5445 19.4261 52.9131 17.8681 52.7509C14.8203 52.4336 13.1778 46.2298 13.0714 40.8765Z" fill="#E6E6E6"/>
<mask id="mask4_65_5236" style="mask-type:luminance" maskUnits="userSpaceOnUse" x="13" y="13" width="40" height="40">
<path fill-rule="evenodd" clip-rule="evenodd" d="M13.0714 40.8765C12.9392 34.2191 19.1398 20.322 21.4286 17.5596C23.1264 15.5105 27.7918 13.7923 33 13.8894C38.2082 13.9864 43.0418 15.1442 44.7857 17.3437C47.4266 20.6745 52.9004 33.3371 52.9286 40.8765C52.9486 46.2307 50.8848 51.5979 48 51.8872C46.3713 52.0505 44.3025 51.8385 41.8166 51.5838L41.8165 51.5838L41.8162 51.5837L41.8161 51.5837H41.8161H41.816C40.6782 51.4671 39.4531 51.3416 38.1428 51.2389V48.5734C42.197 46.6475 44.9999 42.5152 44.9999 37.7282V31.4987C42.7482 30.2488 40.8312 28.7398 39.2341 27.2066C39.9531 28.5539 40.7756 29.7772 41.7029 30.7019C35.1494 28.8493 30.6191 25.0556 27.9042 22.0812C26.6561 24.4731 24.4206 27.9713 20.9999 30.636V37.7282C20.9999 42.5152 23.8029 46.6475 27.8571 48.5734V51.4005C26.3673 51.606 24.9826 51.8668 23.7084 52.1067L23.7082 52.1067L23.7081 52.1067L23.7081 52.1068L23.708 52.1068C21.3833 52.5445 19.4261 52.9131 17.8681 52.7509C14.8203 52.4336 13.1778 46.2298 13.0714 40.8765Z" fill="white"/>
</mask>
<g mask="url(#mask4_65_5236)">
<rect x="4.5" y="9.57141" width="57" height="60.4511" fill="#0C092A"/>
</g>
</g>
</g>
</svg>
